<?xml version="1.0" encoding="utf-8"?>
<!-- Generator: Adobe Illustrator 16.1.0, SVG Export Plug-In . SVG Version: 6.00 Build 0)  -->
<!DOCTYPE svg PUBLIC "-//W3C//DTD SVG 1.1//EN" "http://www.w3.org/Graphics/SVG/1.1/DTD/svg11.dtd">
<svg version="1.1" id="Layer_1" xmlns="http://www.w3.org/2000/svg" xmlns:xlink="http://www.w3.org/1999/xlink" x="0px" y="0px"
	 width="180px" height="180px" viewBox="0 0 180 180" enable-background="new 0 0 180 180" xml:space="preserve">
<g opacity="0.3">
	<g>
		<path fill="#FFFFFF" d="M133.099,168.796h-25.172v-44.593l-9.201,6.31v38.283H74.583c-2.541,0-4.6,2.062-4.6,4.6
			c0,2.543,2.059,4.603,4.6,4.603h58.516c2.538,0,4.599-2.06,4.599-4.603C137.697,170.857,135.637,168.796,133.099,168.796z"/>
	</g>
	<g>
		<path fill="#FFFFFF" d="M176.847,68.866L166.2,53.335c-3.838-5.594-11.48-7.019-17.073-3.184l-34.225,23.458
			c-4.526,3.108-6.322,8.704-4.809,13.695c0.354,1.163,0.888,2.298,1.609,3.357l-55.705,38.19c-1.564,1.067-1.963,3.204-0.891,4.764
			l6.794,9.915c0.515,0.749,1.307,1.267,2.198,1.433c0.212,0.038,0.424,0.059,0.631,0.059c0.093,0,0.187-0.003,0.282-0.013
			c0.593-0.051,1.166-0.25,1.655-0.588l55.709-38.188c0.729,1.057,1.592,1.96,2.551,2.712c4.107,3.212,9.979,3.558,14.507,0.451
			l34.228-23.461C179.254,82.102,180.682,74.462,176.847,68.866z"/>
	</g>
</g>
</svg>
