<?xml version="1.0" encoding="utf-8"?>
<!-- Generator: Adobe Illustrator 16.1.0, SVG Export Plug-In . SVG Version: 6.00 Build 0)  -->
<!DOCTYPE svg PUBLIC "-//W3C//DTD SVG 1.1//EN" "http://www.w3.org/Graphics/SVG/1.1/DTD/svg11.dtd">
<svg version="1.1" id="Layer_1" xmlns="http://www.w3.org/2000/svg" xmlns:xlink="http://www.w3.org/1999/xlink" x="0px" y="0px"
	 width="500px" height="500px" viewBox="0 0 500 500" enable-background="new 0 0 500 500" xml:space="preserve">
<g>
	<g>
		<path fill="#FF00FF" d="M171.917,136.573c-7.63-2.002-13.226,4.319-17.203,9.91c-4.657,6.545-7.861,14.158-10.91,21.548
			c-3.232,7.835-5.772,19.11,1.006,25.92c7.261,7.293,19.339,8.046,29.017,7.377c16.957-1.171,36.825-13.165,39.172-31.488
			c1.276-9.972-5.563-17.312-13.915-21.577c-4.756-2.429-9.991-3.876-15.02-5.614c-5.844-2.02-11.689-4.144-17.971-3.686
			c-6.392,0.466-6.438,10.469,0,10c7.887-0.575,16.297,3.568,23.63,6.162c6.346,2.244,13.872,5.979,13.407,13.688
			c-0.372,6.154-6.388,11.819-10.754,15.466c-4.964,4.146-10.862,6.203-17.213,6.928c-6.984,0.797-14.916,0.616-21.254-2.735
			c-6.296-3.33-2.498-12.802-0.463-17.781c2.168-5.308,4.65-10.503,7.537-15.458c1.198-2.058,5.469-9.751,8.274-9.016
			C175.503,147.854,178.149,138.208,171.917,136.573L171.917,136.573z"/>
	</g>
</g>
<g>
	<g>
		<path fill="#FF00FF" d="M150.042,137.679c-6.773,0.533-12.408-4.926-17.049-9.189c-5.896-5.417-11.442-10.974-15.435-17.992
			c-8.64-15.187,3.169-31.257,18.167-36c13.748-4.346,27.225,2.903,34.922,14.224c9.456,13.909,12.729,31.623,12.275,48.179
			c-0.177,6.453,9.823,6.435,10,0c0.571-20.8-4.587-42.768-18.023-59.077c-11.124-13.502-30.624-18.243-46.598-11.189
			c-8.756,3.866-16.045,10.808-20.644,19.183c-4.998,9.103-3.707,19.304,0.546,28.347c4.158,8.84,11.621,15.796,18.697,22.297
			c6.272,5.763,14.118,11.929,23.141,11.218C156.427,147.176,156.476,137.172,150.042,137.679L150.042,137.679z"/>
	</g>
</g>
<g>
	<g>
		<path fill="#FF00FF" d="M196.867,143.146c14.581-8.186,25.957-21.896,41.694-28.039c12.785-4.99,31.963-5.876,42.166,4.926
			c8.598,9.104-3.62,24.914-10.226,31.15c-12.724,12.012-30.955,11.423-46.579,6.579c-6.177-1.915-8.798,7.739-2.658,9.643
			c19.194,5.95,39.641,5.091,55.482-8.409c11.309-9.637,20.582-26.493,14.344-41.205c-3.223-7.598-12.134-11.927-19.535-14.171
			c-8.84-2.681-18.5-2.235-27.459-0.502c-20.909,4.045-34.462,21.393-52.276,31.394
			C186.198,137.667,191.238,146.306,196.867,143.146L196.867,143.146z"/>
	</g>
</g>
<g>
	<g>
		<path fill="#FF00FF" d="M209.155,184.099c10.966-1.961,23.37,0.638,32.077,7.708c7.661,6.221,13.548,16.955,3.04,23.183
			c-7.475,4.43-17.463,5.694-26.004,5.271c-11.274-0.559-18.467-11.107-21.03-21.124c-1.598-6.244-11.242-3.594-9.643,2.658
			c3.644,14.241,13.865,26.304,28.895,28.309c11.414,1.523,26.024-1.464,35.436-8.172c13.258-9.448,8.389-25.346-1.494-35.274
			c-11.237-11.29-28.617-14.94-43.935-12.2C200.156,175.59,202.852,185.227,209.155,184.099L209.155,184.099z"/>
	</g>
</g>
<g>
	<g>
		<path fill="#FF00FF" d="M163.02,203.675c-1.807,14.545-22.458,20.888-34.745,18.838c-8.264-1.378-15.096-7.935-10.935-16.524
			c4.473-9.232,14.049-12.634,23.116-15.47c6.133-1.918,3.514-11.573-2.658-9.643c-12.469,3.899-24.928,9.495-30.195,22.495
			c-5.101,12.592,2.867,24.133,15.016,28.062c19.709,6.375,47.696-5.98,50.4-27.759C173.812,197.286,163.804,197.362,163.02,203.675
			L163.02,203.675z"/>
	</g>
</g>
<g>
	<g>
		<path fill="#FF00FF" d="M137.157,169.318c-11.9,2.356-23.457,6.158-35.347,8.623c-1.574,0.326-7.331,1.579-7.957,0.741
			c-2.067-2.765,0.251-9.204,1.015-12.148c2.36-9.098,6.785-17.95,13.14-24.906c5.293-5.794,18.313-13.456,25.658-6.97
			c4.814,4.251,11.914-2.795,7.071-7.071c-9.971-8.805-25.441-4.914-35.029,2.647c-10.476,8.261-16.947,21-20.482,33.643
			c-2.792,9.985-3.745,23.964,9.759,24.932c5.684,0.407,12.137-1.698,17.637-2.895c9.149-1.991,17.998-5.131,27.193-6.952
			C146.138,177.709,143.455,168.071,137.157,169.318L137.157,169.318z"/>
	</g>
</g>
<g>
	<g>
		<path fill="#FF00FF" d="M167.051,205.004c1.907,7.831-2.928,17.534-5.791,24.649c-4.74,11.78-11.879,22.518-17.677,33.778
			c-11.563,22.46-15.186,46.908-15.438,71.925c-0.43,42.605,1.763,94.29,38.266,122.895c5.013,3.929,12.144-3.096,7.07-7.07
			c-35.689-27.969-36.172-79.757-35.25-121.148c0.278-12.494,1.574-24.92,4.621-37.055c2.988-11.899,8.286-22.822,14.197-33.504
			c5.545-10.02,10.875-19.946,15.251-30.543c3.279-7.943,6.491-17.977,4.395-26.585
			C175.168,196.082,165.524,198.739,167.051,205.004L167.051,205.004z"/>
	</g>
</g>
</svg>
