<?xml version="1.0" encoding="utf-8"?>
<!-- Generator: Adobe Illustrator 16.1.0, SVG Export Plug-In . SVG Version: 6.00 Build 0)  -->
<!DOCTYPE svg PUBLIC "-//W3C//DTD SVG 1.1//EN" "http://www.w3.org/Graphics/SVG/1.1/DTD/svg11.dtd">
<svg version="1.1" id="Layer_1" xmlns="http://www.w3.org/2000/svg" xmlns:xlink="http://www.w3.org/1999/xlink" x="0px" y="0px"
	 width="180px" height="180px" viewBox="0 0 180 180" enable-background="new 0 0 180 180" xml:space="preserve">
<path fill="#FFFFFF" fill-opacity="0.3" d="M176.858,71.16c-2.852-2.854-7.493-2.854-10.345,0l-1.402,1.407l-11.382-7.972
	l3.104-3.112c2.854-2.849,2.854-7.493,0.005-10.345c-2.852-2.852-7.493-2.852-10.353,0l-6.729,6.731
	c-8.553,8.548-9.949,17.526-10.222,24.396c-0.036,0.93-0.059,1.85-0.052,2.768c0.006,2.518,0.136,5.008,0.258,7.414
	c0.122,2.353,0.219,4.455,0.234,6.57c0.011,0.958,0,1.914-0.035,2.856c-0.103,2.289-0.359,4.748-1.056,7.32l-12.985-9.091
	c3.258-1.331,6.38-1.81,9.257-1.991c-0.028-1.699-0.12-3.463-0.217-5.39c-0.117-2.281-0.229-4.514-0.26-6.812
	c-9.445-0.171-19.388,1.116-28.519,10.248c-9.453,9.455-10.506,19.767-10.233,29.497c0.028,0.933,0.064,1.866,0.104,2.786
	c0.036,0.784,0.074,1.557,0.117,2.324c0.204,4.058,0.411,8.25-0.048,12.233c-0.12,1.08-0.28,2.057-0.475,2.986
	c-0.456,2.126-1.142,4.106-2.057,5.989l-9.381-6.57c2.225-1.314,4.574-2.266,7.134-2.875c0.42-3.567,0.224-7.432,0.02-11.514
	l-0.068-1.431c-6.73,0.372-15.264,2.034-23.404,10.175l-6.736,6.728c-2.852,2.854-2.85,7.501,0.005,10.348
	c2.852,2.857,7.49,2.857,10.345,0.005l1.529-1.531l11.385,7.97l-3.239,3.236c-2.85,2.852-2.85,7.493,0.002,10.345
	c2.854,2.854,7.496,2.854,10.344,0l6.733-6.73c8.546-8.546,9.947-17.517,10.221-24.393c0.038-0.931,0.056-1.855,0.051-2.771
	c-0.005-2.473-0.13-4.914-0.25-7.274c-0.122-2.38-0.229-4.552-0.244-6.702c-0.008-0.961-0.003-1.917,0.04-2.859
	c0.107-2.427,0.388-5.039,1.188-7.771l13.336,9.336c-3.433,1.485-6.726,2.006-9.743,2.197c0.031,1.743,0.123,3.553,0.22,5.388
	c0.112,2.225,0.229,4.475,0.252,6.814c9.448,0.171,19.395-1.121,28.532-10.258c9.45-9.45,10.5-19.754,10.228-29.485
	c-0.023-0.942-0.069-1.868-0.104-2.796l-0.118-2.321c-0.201-4.058-0.412-8.247,0.046-12.23c0.123-1.083,0.281-2.057,0.477-2.987
	c0.47-2.189,1.181-4.221,2.136-6.152l9.469,6.626c-2.276,1.369-4.675,2.353-7.3,2.982c-0.423,3.573-0.227,7.437-0.022,11.512
	l0.074,1.43c6.723-0.367,15.261-2.028,23.401-10.171l6.73-6.731C179.716,78.658,179.71,74.009,176.858,71.16z M77.894,159.78
	l-0.242,0.245l-11.385-7.973l1.952-1.947c0.683-0.686,1.374-1.307,2.075-1.898l10.939,7.658
	C80.264,157.204,79.17,158.504,77.894,159.78z M116.989,125.249l-16.033-11.224c0.767-1.509,1.74-3.049,2.959-4.596l17.427,12.203
	C119.879,123.078,118.427,124.263,116.989,125.249z M124.359,118.215l-17.368-12.159c1.48-1.427,2.948-2.615,4.406-3.576
	l15.847,11.095C126.506,115.098,125.553,116.652,124.359,118.215z M159.78,77.894c-0.635,0.637-1.279,1.221-1.932,1.781
	l-10.975-7.689c0.94-1.287,2.001-2.539,3.231-3.77l0.37-0.372l11.384,7.972L159.78,77.894z"/>
</svg>
