<?xml version="1.0" encoding="utf-8"?>
<!-- Generator: Adobe Illustrator 16.1.0, SVG Export Plug-In . SVG Version: 6.00 Build 0)  -->
<!DOCTYPE svg PUBLIC "-//W3C//DTD SVG 1.1//EN" "http://www.w3.org/Graphics/SVG/1.1/DTD/svg11.dtd">
<svg version="1.1" id="Layer_1" xmlns="http://www.w3.org/2000/svg" xmlns:xlink="http://www.w3.org/1999/xlink" x="0px" y="0px"
	 width="180px" height="180px" viewBox="0 0 180 180" enable-background="new 0 0 180 180" xml:space="preserve">
<g opacity="0.2">
	<path fill="#FFFFFF" d="M173.153,142.86c-4.442-4.307-9.86-7.349-15.685-8.799c-0.148-0.08-0.313-0.127-0.482-0.127h-0.532
		c-0.164,0-0.329,0.044-0.479,0.124c-1.758,0.94-4.166,1.486-6.617,1.486c-2.445,0-4.863-0.546-6.622-1.486
		c-0.148-0.08-0.314-0.124-0.479-0.124h-0.383c-0.078,0-0.157,0.011-0.233,0.025c-2.594,0.616-5.098,1.562-7.484,2.774
		c-1.23,4.275-3.592,8.357-6.78,11.49h45.072c0.559,0,1.014-0.452,1.014-1.015v-3.618
		C173.461,143.319,173.353,143.055,173.153,142.86z"/>
	<path fill="#FFFFFF" d="M137.972,117.894c0,1.087,0.832,1.976,1.857,1.976c0.015,0,0.023,0,0.036,0
		c0.383,5.207,4.486,10.412,9.492,10.412c5.009,0,9.108-5.205,9.495-10.412c0.011,0,0.021,0,0.029,0c1.03,0,1.867-0.889,1.867-1.976
		c0-0.804-0.456-1.496-1.103-1.806c0.373-1.164,0.58-2.417,0.58-3.725c0-6.363-4.862-11.523-10.869-11.523
		c-6.003,0-10.868,5.16-10.868,11.523c0,1.308,0.206,2.561,0.582,3.725C138.421,116.397,137.972,117.09,137.972,117.894z"/>
	<path fill="#FFFFFF" d="M93.877,136.4c-2.071-1.002-4.23-1.79-6.448-2.339c-0.148-0.08-0.314-0.127-0.481-0.127h-0.529
		c-0.165,0-0.33,0.044-0.478,0.124c-1.764,0.94-4.172,1.486-6.62,1.486c-2.447,0-4.865-0.546-6.624-1.486
		c-0.148-0.08-0.313-0.124-0.48-0.124h-0.383c-0.078,0-0.158,0.011-0.233,0.025c-5.982,1.421-11.537,4.5-16.082,8.9
		c-0.193,0.194-0.304,0.459-0.304,0.731v3.618c0,0.562,0.454,1.015,1.016,1.015h44.512C97.473,145.013,95.078,140.788,93.877,136.4z
		"/>
	<path fill="#FFFFFF" d="M67.933,117.894c0,1.087,0.833,1.976,1.858,1.976c0.014,0,0.023,0,0.037,0
		c0.383,5.207,4.482,10.412,9.493,10.412c5.007,0,9.108-5.205,9.494-10.412c0.009,0,0.019,0,0.028,0
		c1.032,0,1.865-0.889,1.865-1.976c0-0.804-0.454-1.496-1.099-1.806c0.372-1.164,0.579-2.417,0.579-3.725
		c0-6.363-4.865-11.523-10.867-11.523c-6.003,0-10.871,5.16-10.871,11.523c0,1.308,0.207,2.561,0.583,3.725
		C68.384,116.397,67.933,117.09,67.933,117.894z"/>
	<path fill="#FFFFFF" d="M94.612,128.085c0,1.867,1.421,3.377,3.178,3.377c0.021,0,0.04-0.004,0.057-0.004
		c0.246,3.338,1.387,6.668,3.17,9.542c0.705,1.133,1.519,2.179,2.405,3.138c2.851,3.072,6.565,5.107,10.639,5.107
		c4.352,0,8.297-2.314,11.213-5.743c0.354-0.417,0.695-0.851,1.021-1.302c2.241-3.114,3.696-6.924,3.983-10.742
		c0.014,0,0.035,0.004,0.057,0.004c1.754,0,3.177-1.51,3.177-3.377c0-1.367-0.774-2.548-1.884-3.075
		c0.642-1.996,0.995-4.129,0.995-6.358c0-10.874-8.309-19.688-18.562-19.688s-18.562,8.813-18.562,19.688
		c0,2.229,0.355,4.362,0.995,6.358C95.385,125.537,94.612,126.718,94.612,128.085z"/>
	<path fill="#FFFFFF" d="M127.912,154.78c-0.25-0.141-0.534-0.207-0.824-0.207h-0.902c-0.285,0-0.569,0.066-0.816,0.202
		c-3.008,1.614-7.127,2.536-11.309,2.536s-8.301-0.928-11.307-2.536c-0.254-0.136-0.536-0.202-0.817-0.202h-0.659
		c-0.132,0-0.268,0.012-0.397,0.043c-10.212,2.417-19.706,7.675-27.454,15.2c-0.338,0.323-0.529,0.771-0.529,1.237v6.185
		c0,0.955,0.773,1.726,1.733,1.726h78.867c0.952,0,1.726-0.771,1.726-1.726v-6.185c0-0.467-0.188-0.914-0.524-1.237
		C147.117,162.452,137.863,157.265,127.912,154.78z"/>
</g>
<text transform="matrix(1 0 0 1 129.5195 76.2075)" opacity="0.2" fill="#FFFFFF" font-family="'LaoMN'" font-size="36">?</text>
<text transform="matrix(1 0 0 1 145.2998 84.0532)" opacity="0.2" fill="#FFFFFF" font-family="'LaoMN'" font-size="36">?</text>
<text transform="matrix(1 0 0 1 114.0576 81.0576)" opacity="0.2" fill="#FFFFFF" font-family="'LaoMN'" font-size="36">?</text>
</svg>
