<?xml version="1.0" encoding="utf-8"?>
<!-- Generator: Adobe Illustrator 16.1.0, SVG Export Plug-In . SVG Version: 6.00 Build 0)  -->
<!DOCTYPE svg PUBLIC "-//W3C//DTD SVG 1.1//EN" "http://www.w3.org/Graphics/SVG/1.1/DTD/svg11.dtd">
<svg version="1.1" id="Layer_1" xmlns="http://www.w3.org/2000/svg" xmlns:xlink="http://www.w3.org/1999/xlink" x="0px" y="0px"
	 width="180px" height="180px" viewBox="0 0 180 180" enable-background="new 0 0 180 180" xml:space="preserve">
<g opacity="0.2">
	<path fill="#FFFFFF" d="M172.133,86.271c-7.158-15.679-19.988-27.625-36.139-33.648c-33.322-12.435-70.556,4.561-82.993,37.889
		c-9.846,26.387-1.539,55.672,20.159,72.952l-5.522,11.135c-0.437,0.891-0.365,1.941,0.193,2.76
		c0.515,0.748,1.359,1.191,2.257,1.191c0.083,0,0.164-0.006,0.246-0.01l34.291-3.086c0.959-0.088,1.801-0.668,2.217-1.535
		c0.42-0.865,0.354-1.891-0.179-2.693l-18.705-28.367c-0.539-0.816-1.467-1.287-2.453-1.223c-0.978,0.061-1.847,0.635-2.283,1.514
		l-5.054,10.201c-16.632-14.5-22.81-37.863-14.917-59.016c10.324-27.675,41.243-41.792,68.922-31.466
		c13.408,5.003,24.062,14.925,30.006,27.942c5.941,13.02,6.463,27.571,1.461,40.979c-4.91,13.146-14.59,23.691-27.264,29.697
		c-2.73,1.291-3.893,4.553-2.602,7.283c0.936,1.971,2.9,3.129,4.949,3.129c0.779,0,1.58-0.17,2.334-0.527
		c15.262-7.23,26.924-19.928,32.832-35.758C179.912,119.471,179.289,101.947,172.133,86.271z"/>
	<path fill="#FFFFFF" d="M107.182,125.988H92.528c0.403-0.793,0.942-1.578,1.61-2.338c1.059-1.217,2.266-2.445,3.586-3.656
		c1.348-1.236,2.757-2.494,4.235-3.771c1.509-1.303,2.901-2.691,4.148-4.113c1.264-1.447,2.313-3,3.119-4.611
		c0.835-1.672,1.259-3.512,1.259-5.459c0-1.766-0.236-3.43-0.704-4.961c-0.486-1.568-1.312-2.949-2.456-4.098
		c-1.135-1.129-2.611-2.03-4.393-2.669c-1.75-0.634-3.9-0.953-6.391-0.953c-2.541,0-4.757,0.368-6.583,1.097
		c-1.81,0.719-3.334,1.584-4.532,2.571c-1.208,0.992-2.138,2.035-2.764,3.096c-0.633,1.068-1.015,1.941-1.149,2.588
		c-0.277,0.877-0.291,1.752-0.036,2.596c0.271,0.914,0.976,1.656,2.107,2.221c1.237,0.592,2.439,0.691,3.525,0.303
		c1.039-0.375,1.847-0.953,2.397-1.725c0.558-0.773,1.073-1.443,1.549-2.004c0.429-0.508,0.887-0.912,1.359-1.215
		c0.459-0.293,0.998-0.512,1.598-0.643c0.639-0.145,1.467-0.213,2.465-0.213c1.828,0,3.055,0.367,3.648,1.096
		c0.634,0.779,0.955,1.896,0.955,3.311c0,1.129-0.393,2.189-1.203,3.23c-0.893,1.145-2.037,2.35-3.408,3.572
		c-1.412,1.254-2.945,2.564-4.597,3.932c-1.687,1.393-3.271,2.914-4.718,4.51c-1.459,1.621-2.72,3.439-3.752,5.406
		c-1.036,1.982-1.595,4.191-1.664,6.566c-0.085,0.291-0.044,0.527-0.004,0.643c0,1.355,0.468,2.4,1.388,3.113
		c0.843,0.656,1.804,0.986,2.85,0.986h21.208c1.053,0,2.002-0.336,2.828-0.996c0.891-0.709,1.341-1.756,1.341-3.104
		c0-1.428-0.446-2.527-1.326-3.262C109.195,126.336,108.239,125.988,107.182,125.988z"/>
	<path fill="#FFFFFF" d="M135.189,131.025c0,1.064,0.459,2.018,1.363,2.832c0.877,0.799,2.064,1.199,3.539,1.199
		c1.342,0,2.457-0.402,3.314-1.209c0.875-0.814,1.318-1.768,1.318-2.822v-5.736h1.215c1.52,0,2.701-0.385,3.516-1.145
		c0.83-0.775,1.254-1.818,1.254-3.09c0-2.818-1.695-4.371-4.77-4.371h-1.215v-7.4c0-1.055-0.443-2.004-1.32-2.828
		c-0.861-0.799-1.973-1.205-3.312-1.205c-1.469,0-2.658,0.402-3.539,1.195c-0.904,0.82-1.363,1.777-1.363,2.838v7.4h-9.223
		l10.775-20.744c0.584-0.938,0.709-1.998,0.363-3.139c-0.33-1.111-1.08-2.006-2.207-2.654c-1.262-0.737-2.477-0.979-3.557-0.733
		c-1.088,0.252-1.957,0.836-2.637,1.842l-13.785,27.252c-0.301,0.479-0.471,0.959-0.506,1.414c-0.021,0.332-0.034,0.664-0.034,0.998
		c0,1.27,0.417,2.32,1.231,3.137c0.816,0.82,1.758,1.232,2.809,1.232h16.77V131.025z"/>
</g>
</svg>
