<?xml version="1.0" encoding="utf-8"?>
<!-- Generator: Adobe Illustrator 16.1.0, SVG Export Plug-In . SVG Version: 6.00 Build 0)  -->
<!DOCTYPE svg PUBLIC "-//W3C//DTD SVG 1.1//EN" "http://www.w3.org/Graphics/SVG/1.1/DTD/svg11.dtd">
<svg version="1.1" id="Layer_1" xmlns="http://www.w3.org/2000/svg" xmlns:xlink="http://www.w3.org/1999/xlink" x="0px" y="0px"
	 width="180px" height="180px" viewBox="0 0 180 180" enable-background="new 0 0 180 180" xml:space="preserve">
<g opacity="0.3">
	<path fill="#FFFFFF" d="M177.69,109.858c-18.154-28.045-38.566-37.228-53.142-41.544c-1.584,2.792-1.625,5.662-1.407,6.767
		c19.287,5.977,36.028,18.641,48.159,36.172L60.69,135.358l37.661-62.644c1.322-0.22,3.783-0.538,7.043-0.538
		c3.314,0,6.677,0.349,10.048,0.971c0.144-1.892,0.472-4.695,1.22-6.753c-3.796-0.705-7.579-1.095-11.293-1.095
		c-6.161,0-9.908,0.997-10.062,1.041l-1.338,0.356l-43.756,70.945l-0.2,1.021l4.455,40.337l114.527-23.746l0.428-0.09l8.576-44.221
		L177.69,109.858z M166.454,134.428l-4.772,0.128c-2.766,0.069-7.235,1.384-12.808,7.246c-3.08,3.245-14.248,4.003-28.46,1.917
		c-6.866-1.007-8.376-0.385-12.105,1.73c-2.657,1.509-6.682,3.801-16.437,6.901c-16.447,5.239-28.096,6.247-32.737,6.426
		l-0.413-3.731c5.537-0.298,16.958-1.551,32.751-6.582c10.195-3.242,14.63-5.765,17.28-7.269c3.034-1.728,3.583-2.038,9.272-1.202
		c9.583,1.404,26.533,2.848,32.32-3.245c4.754-5.019,8.117-5.831,9.701-5.879c1.581-0.036,4.654-0.101,7.128-0.151L166.454,134.428z
		 M169.512,118.665l-1.471,7.592c-2.589,0.054-6.313,0.133-8.112,0.177c-2.766,0.074-7.238,1.392-12.803,7.259
		c-3.08,3.239-14.25,3.993-28.454,1.906c-6.869-1.002-8.377-0.376-12.104,1.74c-2.67,1.513-6.689,3.791-16.438,6.897
		c-15.533,4.944-26.776,6.113-31.895,6.382l-0.831-7.522L169.512,118.665z M60.455,170.754l-0.833-7.551
		c5.157-0.213,16.937-1.32,33.599-6.623c10.193-3.247,14.63-5.77,17.285-7.271c3.034-1.723,3.58-2.037,9.268-1.199
		c9.586,1.396,26.525,2.848,32.32-3.247c4.76-5.017,8.119-5.831,9.701-5.875l3.796-0.098l-2.033,10.479L60.455,170.754z"/>
	<path fill="#FFFFFF" d="M114.898,79.261c-1.389,0-2.455,0.279-3.244,0.861c-3.209,2.34-6.306,9.381-3.789,16.498
		c2.189,6.189,6.274,10.037,10.663,10.037c0.94,0,1.873-0.177,2.778-0.533c1.01-0.405,1.855-0.453,2.747-0.513
		c3.553-0.238,5.549-1.238,8.51-9.401c1.881-5.189,2.091-9.091,0.615-11.6c-0.882-1.497-2.107-2.063-2.732-2.256
		c-0.8-0.557-3.353-2.153-6.685-2.153c-0.59,0-1.179,0.069-1.761,0.17c-0.738-1.697-2.604-6.985-0.177-12.695
		c2.479-5.82,8.611-10.35,18.243-13.477l-0.308,1.074l3.868-1.538l0.977-1.317l-0.472-0.592l0.241-0.41l-1.73-2.417l-1.653,1.992
		l-0.189,0.659c-11.088,3.334-18.156,8.432-21.017,15.16c-2.308,5.416-1.259,10.447-0.326,13.161
		C118.139,79.617,116.432,79.261,114.898,79.261z M128.97,84.713l0.295,0.207l0.305,0.069c0.033,0.008,0.754,0.18,1.259,1.107
		c0.551,1.002,1.166,3.529-0.869,9.17c-2.671,7.352-3.96,7.428-6.09,7.577c-0.964,0.062-2.166,0.141-3.583,0.696
		c-0.574,0.229-1.169,0.344-1.758,0.344c-3.127,0-6.29-3.211-8.049-8.191c-2.214-6.254,0.787-11.856,2.807-13.335
		c0.162-0.121,0.601-0.323,1.612-0.323c2.479,0,5.782,1.218,5.808,1.232l0.437,0.156l0.445-0.128
		c0.713-0.218,1.44-0.323,2.174-0.323C126.72,82.972,128.954,84.699,128.97,84.713z"/>
</g>
</svg>
