<?xml version="1.0" encoding="utf-8"?>
<!-- Generator: Adobe Illustrator 16.1.0, SVG Export Plug-In . SVG Version: 6.00 Build 0)  -->
<!DOCTYPE svg PUBLIC "-//W3C//DTD SVG 1.1//EN" "http://www.w3.org/Graphics/SVG/1.1/DTD/svg11.dtd">
<svg version="1.1" id="Layer_1" xmlns="http://www.w3.org/2000/svg" xmlns:xlink="http://www.w3.org/1999/xlink" x="0px" y="0px"
	 width="180px" height="180px" viewBox="0 0 180 180" enable-background="new 0 0 180 180" xml:space="preserve">
<g opacity="0.2">
	<path fill="#FFFFFF" d="M176.439,80.541c-3.715-25.71-38.811-31.524-45.099-31.524L129.385,49
		c-10.838,0-46.422,2.752-49.285,38.159c-0.525,4.824-3.075,18.527-8.491,23.938c-1.295,1.3-3.996,4.005-2.762,7.037
		c1.173,2.87,4.325,2.905,6.864,2.934c0.428,0,1.25,0.01,1.938,0.062c-0.259,2.027-0.548,3.072-0.768,3.855
		c-0.225,0.796-0.453,1.623-0.453,2.768c0,1.324,0.499,2.993,2.696,3.963c-1.298,2.087-1.09,4.213,0.612,5.918
		c0.592,0.594,0.889,0.891,0.889,5.557c0,3.2,1.275,5.91,3.687,7.844c2.576,2.067,6.439,3.017,9.898,2.461l0.661-0.101
		c1.552-0.248,3.154-0.502,4.593-0.502c2.08,0,3.288,0.492,4.179,1.698c0.8,1.067,1.608,1.948,2.264,2.66
		c2.304,2.52,3.963,4.34,3.963,11.535c0,5.409,0.758,7.616,0.911,8.001l0.628,1.639c0.131,0.343,0.466,0.573,0.838,0.573l0,0
		l50.394-0.098c0.28,0,0.547-0.133,0.716-0.357c0.169-0.231,0.221-0.521,0.144-0.795l-0.957-3.262
		c-0.085-0.276-8.065-27.782,3.074-47.909c1.78-3.217,3.337-5.895,4.684-8.219l0.097-0.166
		C178.365,104.467,179.594,102.36,176.439,80.541z M154.853,172.03l-37.963,0.073c-0.086-0.97-0.133-2.081-0.133-3.317
		c0-9.865-2.93-13.076-5.783-16.2c-0.602-0.655-1.222-1.332-1.8-2.105c-2.229-3.01-5.403-4.475-9.71-4.475
		c-1.981,0-3.938,0.312-5.673,0.589l-0.636,0.098c-0.343,0.051-0.687,0.081-1.039,0.081c-0.469,0-4.606-0.103-4.606-3.583
		c0-4.525-0.248-6.925-1.724-9.034c0.615-1.078,0.912-2.204,0.912-3.423c0-2.153-1.044-3.797-2.959-4.709
		c0.276-1.08,0.635-2.739,0.914-5.515c0.197-2.007-0.587-3.352-1.278-4.127c-1.414-1.578-3.478-2.01-5.37-2.14
		c7.013-8.927,8.87-25.662,8.954-26.43c2.324-28.82,30.443-31.929,42.415-31.929l1.916,0.02c0.348,0.021,35.062,3.02,38.333,25.625
		c2.81,19.439,2.208,20.48-5.188,33.209c-1.387,2.396-2.999,5.171-4.843,8.507C149.863,140.823,152.814,162.469,154.853,172.03z"/>
	<path fill="#FFFFFF" d="M99.175,97.279c0,0-2.463-4.173-1.744-6.756c0.72-2.579,0.252-2.686,0.641-4.77
		c0.392-2.08-0.84-2.585,0.993-4.657c1.836-2.071,3.547-4.382,3.495-5.966c-0.056-1.58,0.093-3.901,2.837-4.843
		c2.745-0.954,7.497-4.044,7.469-4.89c-0.033-0.852,3.062-1.688,4.681-1.749c1.62-0.059,4.896-0.722,5.732-1.664
		c0.83-0.937,3.774-1.228,4.852-0.171c1.081,1.055,3.437,2.192,4.553,0.933c1.11-1.254,3.374-1.03,4.157-0.266
		c0.778,0.76,0.723,4.109,2.996,2.934c2.274-1.176,3.697-0.129,5.339,0.42c1.642,0.546,2.097,3.697,3.92,2.779
		c1.818-0.916,2.891,1.544,3.79,2.421c0.899,0.885,0.809,3.2,3.176,3.115c2.374-0.083,2.903,1.91,2.938,2.877
		c0.035,0.971,1.236,2.147,2.254,3.146c1.018,0.996,2.508,3.745,2.556,5.2c0.053,1.46-1.164,2.968,0.151,4.256
		c1.319,1.292,1.808,3.648,0.753,4.84c-1.061,1.19-2.196,2.604-0.965,3.808c1.227,1.206,0.033,2.555-1.196,3.939
		c-1.221,1.38-1.157,3.077-1.101,4.662c0.051,1.577,1.162,3.425-1.675,3.526c-2.829,0.101-5.408,0.919-7.243,2.993
		c-1.836,2.072-3.438,5.905-5.057,4.316c-1.619-1.584-3.707-1.752-5.243-4.194c-1.531-2.438-1.629-3.534-2.613-3.5
		c-0.978,0.038-4.165,1.67-3.215-0.914c0.953-2.596,1.716-3.954-0.368-3.885c-2.08,0.072-6.145-0.271-7.369,1.114
		c-1.224,1.381-3.301,1.696-4.854,0.171c-1.562-1.529-2.304-2.839-4.683-1.416c-2.38,1.42-2.682,2.775-5.316,0.188
		c-2.639-2.58-5.097-3.349-6.367-3.299c-1.274,0.041-4.471,1.369-4.558-1.06C102.809,98.486,99.175,97.279,99.175,97.279"/>
</g>
</svg>
